<?xml version="1.0" encoding="utf-8"?>
<!-- Generator: Adobe Illustrator 27.0.1, SVG Export Plug-In . SVG Version: 6.00 Build 0)  -->
<svg version="1.1" id="Layer_2_00000036944358293960782370000013444770540225549217_"
	 xmlns="http://www.w3.org/2000/svg" xmlns:xlink="http://www.w3.org/1999/xlink" x="0px" y="0px" viewBox="0 0 229.5 143.8"
	 style="enable-background:new 0 0 229.5 143.8;" xml:space="preserve">
<style type="text/css">
	.st0{enable-background:new    ;}
	.st1{display:none;}
	.st2{fill:url(#SVGID_1_);}
	.st3{fill:url(#SVGID_00000021098296651580176430000011549042581721832604_);}
	.st4{fill:url(#SVGID_00000084499220499755747080000017145133114774987136_);}
	.st5{fill:url(#SVGID_00000133527734447782354000000017516940751346816919_);}
	.st6{fill:url(#SVGID_00000100368628788106729010000007402827872431043773_);}
	.st7{fill:url(#SVGID_00000043435742225496074610000015381076145173373848_);}
	.st8{font-family:'AGaramondPro-Regular';}
	.st9{font-size:42.4597px;}
	.st10{letter-spacing:1.9;}
	.st11{font-family:'ACaslonPro-Semibold';}
	.st12{font-size:11.3883px;}
	.st13{opacity:0.43;stroke:#020202;stroke-width:0.951;stroke-miterlimit:10;enable-background:new    ;}
	.st14{font-family:'ACaslonPro-SemiboldItalic';}
	.st15{font-size:6.6432px;}
</style>
<g id="Elegant_Logo_Kit">
	<g id="_6">
		<g class="st0">
			<g class="st1">
				
					<radialGradient id="SVGID_1_" cx="36.3571" cy="69.1478" r="106.8363" gradientTransform="matrix(1 0 0 -1 0 146)" gradientUnits="userSpaceOnUse">
					<stop  offset="0" style="stop-color:#FFFFFF"/>
					<stop  offset="1" style="stop-color:#020202"/>
				</radialGradient>
				<path class="st2" d="M38.3,84.4c0,4.5,0.3,5.2,2.6,5.4l1.7,0.1c0.3,0.3,0.2,0.9-0.1,1.1c-2.7-0.1-4.2-0.1-6-0.1s-3.4,0-5.8,0.1
					c-0.3-0.1-0.4-0.8-0.1-1.1l1.4-0.1c2.6-0.3,2.6-0.8,2.6-5.4v-2.2c0-2.3-0.1-2.9-1.4-5.3L28,67.1c-1.5-2.8-2.2-3-3.5-3.2
					l-1.1-0.1c-0.3-0.3-0.2-0.9,0.1-1.1c1.4,0.1,3,0.1,5.1,0.1c2,0,3.6,0,4.7-0.1c0.4,0.1,0.4,0.8,0.1,1.1l-0.6,0.1
					c-1.5,0.2-1.8,0.4-1.8,0.8s1.1,2.8,1.4,3.3c1.6,3.1,3.3,6.5,5,9.4c1.4-2.2,2.8-4.7,4.1-7.2c1.2-2.2,2.9-5.1,2.9-5.6
					c0-0.3-0.8-0.6-1.8-0.7l-0.8-0.1c-0.3-0.3-0.3-0.9,0.1-1.1c1.6,0.1,2.9,0.1,4.2,0.1s2.6,0,4.1-0.1c0.4,0.2,0.4,0.8,0.1,1.1
					L49,64c-2.3,0.4-3.6,3.1-5.8,6.7l-2.8,4.6c-1.9,3.2-2.1,3.6-2.1,6.9V84.4z"/>
				
					<radialGradient id="SVGID_00000173844456847702398530000000196812759457693824_" cx="37.3948" cy="69.5478" r="227.8641" gradientTransform="matrix(1 0 0 -1 0 146)" gradientUnits="userSpaceOnUse">
					<stop  offset="0" style="stop-color:#FFFFFF"/>
					<stop  offset="1" style="stop-color:#020202"/>
				</radialGradient>
				<path style="fill:url(#SVGID_00000173844456847702398530000000196812759457693824_);" d="M70.6,81c-0.3-0.9-0.5-1.1-1.8-1.1
					h-6.6c-1.1,0-1.4,0.1-1.7,1L59,85.4c-0.7,1.9-1,3.1-1,3.5c0,0.5,0.2,0.8,1.3,0.8l1.5,0.1c0.3,0.2,0.3,0.9-0.1,1.1
					c-1.1-0.1-2.5-0.1-4.6-0.1c-1.5,0-3,0.1-4.2,0.1c-0.3-0.2-0.4-0.8-0.1-1.1l1.5-0.1c1.1-0.1,2-0.6,2.6-2.1c0.8-2,2-4.7,3.9-9.5
					l4.5-11.5c0.6-1.5,0.9-2.3,0.7-3c1.1-0.3,1.8-1.1,2.3-1.6c0.3,0,0.6,0.1,0.7,0.4c0.6,1.9,1.3,3.8,1.9,5.7l6,17.1
					c1.3,3.7,1.8,4.3,3.7,4.5l1.2,0.1c0.3,0.2,0.2,0.9,0,1.1c-1.8-0.1-3.3-0.1-5.3-0.1c-2.1,0-3.8,0.1-5.1,0.1
					c-0.4-0.2-0.4-0.8-0.1-1.1l1.3-0.1c0.9-0.1,1.5-0.3,1.5-0.8s-0.2-1.2-0.6-2.3L70.6,81z M61.9,77.2c-0.4,1-0.3,1,0.9,1h5.4
					c1.3,0,1.4-0.2,1-1.3L66.9,70c-0.4-1-0.7-2.2-1-2.7h-0.1c-0.1,0.2-0.6,1.2-1.1,2.5L61.9,77.2z"/>
				
					<radialGradient id="SVGID_00000103949293384209474190000007214410476834768769_" cx="31.4096" cy="69.1478" r="614.5014" gradientTransform="matrix(1 0 0 -1 0 146)" gradientUnits="userSpaceOnUse">
					<stop  offset="0" style="stop-color:#FFFFFF"/>
					<stop  offset="1" style="stop-color:#020202"/>
				</radialGradient>
				<path style="fill:url(#SVGID_00000103949293384209474190000007214410476834768769_);" d="M94,91.5c-3.7,0-6-1.1-6.9-1.6
					C86.6,89,86,86,85.9,84c0.2-0.3,0.9-0.4,1.1-0.1c0.7,2.2,2.5,6.3,7.6,6.3c3.7,0,5.5-2.3,5.5-4.9c0-1.9-0.4-3.9-3.6-5.9l-4.2-2.6
					c-2.2-1.4-4.8-3.8-4.8-7.3c0-4,3.3-7.3,9-7.3c1.4,0,2.9,0.3,4.1,0.6c0.6,0.2,1.2,0.3,1.5,0.3c0.4,1,0.8,3.4,0.8,5.2
					c-0.2,0.3-0.9,0.4-1.1,0.1c-0.6-2-1.8-4.8-6-4.8c-4.3,0-5.2,2.8-5.2,4.7c0,2.5,2.1,4.2,3.7,5.2l3.5,2.1c2.8,1.7,5.5,4.1,5.5,8.2
					C103.3,88.3,99.7,91.5,94,91.5z"/>
				
					<radialGradient id="SVGID_00000129177333380019487830000015032897013963853495_" cx="37.3948" cy="69.5478" r="503.8068" gradientTransform="matrix(1 0 0 -1 0 146)" gradientUnits="userSpaceOnUse">
					<stop  offset="0" style="stop-color:#FFFFFF"/>
					<stop  offset="1" style="stop-color:#020202"/>
				</radialGradient>
				<path style="fill:url(#SVGID_00000129177333380019487830000015032897013963853495_);" d="M127.5,81c-0.3-0.9-0.5-1.1-1.8-1.1
					h-6.6c-1.1,0-1.4,0.1-1.7,1l-1.5,4.5c-0.7,1.9-1,3.1-1,3.5c0,0.5,0.2,0.8,1.3,0.8l1.5,0.1c0.3,0.2,0.3,0.9-0.1,1.1
					c-1.1-0.1-2.5-0.1-4.6-0.1c-1.5,0-3,0.1-4.2,0.1c-0.3-0.2-0.4-0.8-0.1-1.1l1.5-0.1c1.1-0.1,2-0.6,2.6-2.1c0.8-2,2-4.7,3.9-9.5
					l4.5-11.5c0.6-1.5,0.9-2.3,0.7-3c1.1-0.3,1.8-1.1,2.3-1.6c0.3,0,0.6,0.1,0.7,0.4c0.6,1.9,1.3,3.8,1.9,5.7l6,17.1
					c1.3,3.7,1.8,4.3,3.7,4.5l1.2,0.1c0.3,0.2,0.2,0.9,0,1.1c-1.8-0.1-3.3-0.1-5.3-0.1c-2.1,0-3.8,0.1-5.1,0.1
					c-0.4-0.2-0.4-0.8-0.1-1.1l1.3-0.1c0.9-0.1,1.5-0.3,1.5-0.8s-0.2-1.2-0.6-2.3L127.5,81z M118.8,77.2c-0.4,1-0.3,1,0.9,1h5.4
					c1.3,0,1.4-0.2,1-1.3l-2.4-6.9c-0.4-1-0.7-2.2-1-2.7h-0.1c-0.1,0.2-0.6,1.2-1.1,2.5L118.8,77.2z"/>
				
					<radialGradient id="SVGID_00000009580311222531576570000001279990243694228915_" cx="38.9734" cy="68.9978" r="610.788" gradientTransform="matrix(1 0 0 -1 0 146)" gradientUnits="userSpaceOnUse">
					<stop  offset="0" style="stop-color:#FFFFFF"/>
					<stop  offset="1" style="stop-color:#020202"/>
				</radialGradient>
				<path style="fill:url(#SVGID_00000009580311222531576570000001279990243694228915_);" d="M170.3,83.6c0,1.3,0,6.3,0.1,7.4
					c-0.1,0.3-0.4,0.5-0.8,0.5c-0.5-0.7-1.8-2.2-5.6-6.4l-10.2-11.2c-1.2-1.3-4.2-4.8-5.1-5.7h-0.1c-0.2,0.5-0.2,1.5-0.2,2.8v9.3
					c0,2,0,7.5,0.8,8.8c0.3,0.5,1.1,0.7,2.2,0.8l1.4,0.1c0.3,0.3,0.2,0.8-0.1,1.1c-2-0.1-3.5-0.1-5.1-0.1c-1.8,0-3,0-4.6,0.1
					c-0.3-0.2-0.4-0.8-0.1-1.1l1.2-0.1c1-0.1,1.7-0.4,1.9-0.8c0.6-1.5,0.6-6.7,0.6-8.7V67.9c0-1.2,0-2.1-1-3.1
					c-0.6-0.6-1.7-0.9-2.7-1l-0.7-0.1c-0.3-0.3-0.3-0.9,0.1-1.1c1.8,0.1,4.2,0.1,5,0.1c0.7,0,1.5,0,2-0.1c0.9,2.2,6.1,7.8,7.5,9.3
					l4.3,4.6c3,3.3,5.2,5.6,7.3,7.7h0.1c0.2-0.2,0.2-0.9,0.2-1.8v-9.1c0-2,0-7.5-0.9-8.8c-0.3-0.4-1-0.6-2.7-0.8l-0.7-0.1
					c-0.3-0.3-0.3-0.9,0.1-1.1c2,0.1,3.5,0.1,5.2,0.1c1.9,0,3,0,4.5-0.1c0.4,0.2,0.4,0.8,0.1,1.1l-0.6,0.1c-1.4,0.2-2.3,0.6-2.5,0.9
					c-0.7,1.5-0.7,6.8-0.7,8.7v10.3H170.3z"/>
				
					<radialGradient id="SVGID_00000113355204094883698820000012335475951846120843_" cx="36.3571" cy="69.1978" r="910.7094" gradientTransform="matrix(1 0 0 -1 0 146)" gradientUnits="userSpaceOnUse">
					<stop  offset="0" style="stop-color:#FFFFFF"/>
					<stop  offset="1" style="stop-color:#020202"/>
				</radialGradient>
				<path style="fill:url(#SVGID_00000113355204094883698820000012335475951846120843_);" d="M194.2,84.4c0,4.5,0.3,5.2,2.6,5.4
					l1.7,0.1c0.3,0.3,0.2,0.9-0.1,1.1c-2.7-0.1-4.2-0.1-6-0.1s-3.4,0-5.8,0.1c-0.3-0.1-0.4-0.8-0.1-1.1l1.4-0.1
					c2.6-0.3,2.6-0.8,2.6-5.4v-2.2c0-2.3-0.1-2.9-1.4-5.3l-5.2-9.8c-1.5-2.8-2.2-3-3.5-3.2l-1.2-0.2c-0.3-0.3-0.2-0.9,0.1-1.1
					c1.4,0.1,3,0.1,5.1,0.1c2,0,3.6,0,4.7-0.1c0.4,0.1,0.4,0.8,0.1,1.1l-0.6,0.1c-1.5,0.2-1.8,0.4-1.8,0.8s1.1,2.8,1.4,3.3
					c1.6,3.1,3.3,6.5,5,9.4c1.4-2.2,2.8-4.7,4.1-7.2c1.2-2.2,2.9-5.1,2.9-5.6c0-0.3-0.8-0.6-1.8-0.7l-0.8-0.1
					c-0.3-0.3-0.3-0.9,0.1-1.1c1.6,0.1,2.9,0.1,4.2,0.1s2.6,0,4.1-0.1c0.4,0.2,0.4,0.8,0.1,1.1l-1.2,0.2c-2.3,0.4-3.6,3.1-5.8,6.7
					l-2.8,4.6c-1.9,3.2-2.1,3.6-2.1,6.9V84.4z"/>
			</g>
			<text transform="matrix(1.0363 0 0 1 23.5055 90.8508)" class="st8 st9 st10">YASANY</text>
			<text transform="matrix(1.0363 0 0 1 23.5055 90.8508)" class="st8 st9 st10">YASANY</text>
		</g>
		<text transform="matrix(0.969 0 0 1 84.4426 59.3735)" class="st11 st12">HA</text>
		<text transform="matrix(0.969 0 0 1 102.6692 59.3735)" class="st11 st12">I</text>
		<text transform="matrix(0.969 0 0 1 107.2854 59.3735)" class="st11 st12">R BY</text>
		<path class="st13" d="M175.3,73.2c-1.3-2.7-2.9-5.1-4.8-7.3c-0.5-0.6-0.7-1.4-0.3-2.1c1.2-2.3,2-4.7,2.6-7.4
			c0.1-0.6,0-1.2-0.4-1.6c-1.8-2-3.7-3.7-5.8-5.1c-0.6-0.4-1-1.2-0.8-1.9c0.5-2.5,0.8-5.2,0.7-7.8c0-0.6-0.3-1.1-0.8-1.4
			c-2.6-1.7-5.3-2.9-8.2-3.6c0-3.3-0.6-6.7-1.7-9.9c-3.2-1.2-6.4-1.7-9.6-1.7c0,0,0,0,0,0c-0.8-3.2-2.1-6.3-4-9.2
			c-0.7-0.1-1.5-0.1-2.2-0.1c-2.7,0-5.1,0.4-7.5,1.1c-1.6-2.9-3.7-5.5-6.3-7.8c-3.3,0.7-6.4,1.9-9.2,3.5c-2.2-2.4-4.9-4.3-8-5.9
			c-3,1.5-5.7,3.5-8,5.9c-2.8-1.7-5.8-2.9-9.2-3.5c-2.6,2.3-4.7,4.9-6.3,7.8c-2.4-0.7-5-1.1-7.5-1.1c-0.7,0-1.5,0-2.2,0.1
			c-1.9,3-3.3,6-4,9.2c0,0,0,0,0,0c-3.1,0-6.4,0.6-9.7,1.7c-1.1,3.3-1.7,6.7-1.7,9.9c-2.8,0.7-5.5,1.9-8.2,3.6
			c-0.5,0.3-0.8,0.9-0.8,1.4c-0.1,2.7,0.1,5.3,0.7,7.8c0.2,0.7-0.1,1.5-0.7,1.9c-2.1,1.4-4.1,3.1-5.9,5.1c-0.4,0.4-0.5,1.1-0.4,1.6
			c0.6,2.6,1.5,5.1,2.6,7.4c0.3,0.7,0.2,1.5-0.3,2.1c-1.7,1.9-3.2,4-4.4,6.5c-0.3,0.5-0.3,1.2,0,1.7c1.2,2.4,2.7,4.5,4.4,6.4
			c0.5,0.6,0.7,1.4,0.3,2.1c-1.2,2.3-2,4.7-2.6,7.4c-0.1,0.6,0,1.2,0.4,1.6c1.8,2,3.7,3.7,5.8,5.1c0.6,0.4,1,1.2,0.8,1.9
			c-0.6,2.5-0.8,5.2-0.7,7.9c0,0.6,0.3,1.1,0.8,1.4c2.2,1.5,4.6,2.6,7,3.3c0.7,0.2,1.2,0.9,1.2,1.6c0.1,2.6,0.5,5.2,1.3,7.8
			c0.2,0.5,0.6,0.9,1.1,1.1c2.6,0.9,5.1,1.3,7.7,1.4c0.6,0.5,1,0.8,1.5,1.2c0.8,2.7,2,5.4,3.7,8c0.7,0.1,1.5,0.1,2.2,0.1
			c2.6,0,5.1-0.4,7.5-1.1c1.6,2.9,3.7,5.5,6.3,7.8c3.3-0.7,6.4-1.9,9.2-3.5c2.2,2.4,4.9,4.3,8,5.9c3-1.5,5.7-3.5,8-5.9
			c2.8,1.7,5.8,2.9,9.2,3.5c2.6-2.3,4.7-4.9,6.3-7.8c2.4,0.7,5,1.1,7.5,1.1c0.7,0,1.5,0,2.2-0.1c1.7-2.6,3-5.2,3.7-8
			c0.6-0.5,1-0.8,1.6-1.2c2.5-0.1,5-0.6,7.5-1.4c0.5-0.2,0.9-0.6,1.1-1.2c0.8-2.6,1.2-5.2,1.3-7.7c0-0.8,0.5-1.5,1.3-1.7
			c2.4-0.7,4.7-1.8,6.9-3.3c0.5-0.3,0.8-0.9,0.8-1.4c0.1-2.7-0.1-5.3-0.7-7.8c-0.2-0.7,0.1-1.5,0.7-1.9c2.1-1.4,4.1-3.1,5.9-5.1
			c0.4-0.4,0.5-1.1,0.4-1.6c-0.6-2.6-1.5-5.1-2.6-7.4c-0.3-0.7-0.2-1.5,0.3-2.1C172.4,78.4,174,75.9,175.3,73.2L175.3,73.2z
			 M172.7,74.1c-0.8,1.4-1.7,2.8-2.7,4c-0.7,0.9-1.9,0.8-2.6,0c-1.1-1.3-2.2-2.5-3.5-3.5c-0.9-0.7-0.9-2.1,0-2.8
			c1.3-1,2.5-2.2,3.5-3.6c0.7-0.8,1.9-0.9,2.6-0.1c1,1.3,1.9,2.6,2.7,4.1C173,72.8,173,73.5,172.7,74.1z M158.8,88.5
			c1.5,1.7,2.8,3.7,3.8,5.9c0.4,1,0,2.1-0.9,2.5c-2.2,0.9-4.5,1.4-6.8,1.4l-0.2,0c-1.3,0-2,1.5-1.4,2.7l0.1,0.2
			c1.1,2.1,1.9,4.4,2.2,6.8c0.1,1-0.5,2-1.5,2.1c-0.8,0.1-1.6,0.1-2.5,0.1c-1.6,0-3.1-0.2-4.6-0.6l-0.3-0.1c-1.2-0.3-2.3,0.9-2,2.2
			l0.1,0.3c0.5,2.3,0.7,4.8,0.4,7.3c-0.1,1-1,1.7-1.9,1.6c-2.4-0.4-4.7-1.2-6.7-2.3l-0.3-0.2c-1.1-0.6-2.4,0.3-2.4,1.6l0,0.3
			c-0.1,3-0.8,5.9-2.1,8.8c-2.9-1.1-5.4-2.6-7.4-4.6l-0.2-0.2c-0.9-0.9-2.4-0.4-2.7,0.8l-0.1,0.3c-0.8,2.9-2.2,5.5-4.2,7.9
			c-2.5-1.8-4.6-3.9-6.1-6.5l-0.1-0.2c-0.7-1.1-2.2-1.1-2.9,0l-0.1,0.2c-1.5,2.5-3.6,4.6-6.1,6.5c-2-2.4-3.4-5-4.2-7.9l-0.1-0.3
			c-0.4-1.3-1.8-1.7-2.7-0.8l-0.2,0.2c-2.1,2-4.6,3.6-7.4,4.6c-1.3-2.9-2-5.8-2.1-8.8l0-0.3c0-1.3-1.3-2.1-2.4-1.6l-0.3,0.2
			c-2,1.1-4.3,1.8-6.7,2.2c-0.9,0.2-1.8-0.6-1.9-1.6c-0.3-2.4-0.2-4.9,0.4-7.2l0.1-0.3c0.3-1.3-0.8-2.5-2-2.2l-0.3,0.1
			c-1.5,0.4-3,0.6-4.6,0.6c-0.8,0-1.6,0-2.5-0.1c-1-0.1-1.6-1.1-1.5-2.1c0.3-2.5,1.1-4.8,2.2-6.8l0.1-0.2c0.6-1.2-0.2-2.6-1.4-2.7
			l-0.2,0c-2.3-0.1-4.6-0.6-6.8-1.5c-0.9-0.4-1.4-1.5-1-2.5c1-2.2,2.2-4.3,3.8-5.9l0.1-0.1c0.9-1,0.5-2.6-0.8-3l-0.2-0.1
			c-2.2-0.7-4.3-1.7-6.2-3.2c-0.8-0.6-1-1.8-0.3-2.7c1.5-1.9,3.2-3.5,5.2-4.8h0c1.1-0.7,1.1-2.5,0-3.1h0c-2-1.2-3.7-2.9-5.2-4.8
			c-0.6-0.8-0.5-2,0.3-2.6c1.9-1.5,4-2.5,6.2-3.2l0.3-0.1c1.2-0.4,1.6-2,0.7-3l-0.1-0.2C58,56,56.7,54,55.7,51.8
			c-0.4-1,0-2.1,0.9-2.5c2.2-0.9,4.5-1.4,6.8-1.4l0.2,0c1.3,0,2-1.5,1.4-2.7L65.1,45c-1.4-2.7-2.1-5.5-2.4-8.7
			c1.4-0.3,2.8-0.4,4.1-0.4c1.6,0,3.1,0.2,4.6,0.6l2.9,0.7l-0.6-3c-0.6-2.9-0.7-5.9-0.1-9c3,0.2,5.9,1.1,8.4,2.5l2.7,1.4l0.1-3
			c0.1-3,0.8-5.9,2.1-8.8c2.9,1.1,5.3,2.6,7.4,4.6l2.2,2.2l0.8-3c0.8-2.9,2.2-5.5,4.2-7.9c2.5,1.8,4.6,4,6.1,6.5l1.6,2.7l1.6-2.7
			c1.5-2.5,3.6-4.6,6.1-6.5c2,2.4,3.4,5,4.2,7.9l0.8,3l2.2-2c2.1-2,4.6-3.6,7.4-4.6c1.3,2.9,2,5.8,2.1,8.8l0.1,3l2.7-1.4
			c2.5-1.4,5.3-2.2,8.4-2.5c0.6,3,0.6,6.1-0.1,9l-0.6,3l2.9-0.7c1.5-0.4,3-0.6,4.6-0.6c1.4,0,2.8,0.1,4.1,0.4
			c-0.2,3.1-1,6.1-2.4,8.7l-0.1,0.2c-0.6,1.2,0.2,2.6,1.4,2.7l0.2,0c2.3,0.1,4.6,0.6,6.8,1.5c0.9,0.4,1.4,1.5,1,2.5
			c-1,2.2-2.2,4.3-3.8,5.9l-0.1,0.1c-0.9,1-0.5,2.6,0.8,3l0.2,0.1c2.2,0.7,4.3,1.8,6.2,3.2c0.8,0.6,1,1.8,0.3,2.7
			c-1.5,1.9-3.2,3.5-5.2,4.8l0,0c-1.1,0.7-1.1,2.5,0,3.1v0c1.9,1.2,3.7,2.9,5.2,4.8c0.6,0.8,0.5,2-0.3,2.6c-1.9,1.5-4,2.5-6.2,3.2
			l-0.2,0.1C158.3,85.9,157.9,87.5,158.8,88.5L158.8,88.5z M170.8,57c-0.4,1.7-1,3.2-1.7,4.7c-0.5,1-1.6,1.3-2.5,0.6
			c-1.3-1-2.8-1.8-4.3-2.5c-1-0.4-1.4-1.8-0.7-2.7c1-1.3,1.8-2.8,2.5-4.4c0.4-1,1.6-1.4,2.4-0.8c1.4,0.9,2.6,2.1,3.8,3.3
			C170.8,55.8,170.9,56.4,170.8,57z M164.7,40.1c0.1,2.1-0.1,4-0.4,5.9c-0.2,1.1-1.3,1.7-2.3,1.4c-1.6-0.6-3.2-1-4.8-1.3
			c-1.1-0.2-1.7-1.4-1.3-2.4c0.8-2.2,1.3-4.5,1.6-6.9C159.9,37.5,162.4,38.5,164.7,40.1L164.7,40.1z M154.4,26.4
			c0.8,2.7,1.2,5.4,1.2,8.1c-1.4-0.3-2.8-0.4-4.2-0.4c-1.7,0-3.4,0.2-5.1,0.6c0.7-3,0.7-6.3,0.2-9.4
			C149.3,25.1,151.9,25.6,154.4,26.4z M140.1,15.9c0.4,0,0.7,0,1.1,0c1.5,2.4,2.6,4.8,3.2,7.4c-3.1,0.3-6.2,1.2-8.8,2.7
			c-0.1-3.1-0.8-6.3-2.2-9.2C135.5,16.2,137.7,15.9,140.1,15.9L140.1,15.9z M125.8,9.2c2,1.9,3.7,4,5,6.4c-2.9,1.2-5.6,2.8-7.9,4.9
			c-0.9-3-2.4-5.9-4.4-8.4C120.6,10.9,123.1,9.9,125.8,9.2L125.8,9.2z M109.2,7.1c2.4,1.4,4.5,3,6.3,4.7c-2.6,1.9-4.8,4.1-6.3,6.8
			c-1.7-2.7-3.8-5-6.3-6.8C104.6,9.9,106.7,8.3,109.2,7.1z M92.6,9.2c2.7,0.7,5.1,1.6,7.4,3c-2,2.5-3.6,5.3-4.4,8.4
			c-2.2-2.2-4.9-3.8-7.9-4.9C88.9,13.4,90.5,11.2,92.6,9.2L92.6,9.2z M77.1,15.9c0.4,0,0.7,0,1.1,0c2.3,0,4.6,0.3,6.7,0.9
			c-1.3,3-2.1,6.1-2.2,9.2c-2.7-1.5-5.7-2.4-8.8-2.7C74.6,20.7,75.7,18.3,77.1,15.9L77.1,15.9z M63.9,26.4c2.6-0.9,5.2-1.3,7.8-1.3
			c-0.6,3.2-0.6,6.5,0.2,9.4c-1.7-0.4-3.3-0.6-5.1-0.6c-1.4,0-2.8,0.1-4.2,0.4C62.7,31.7,63,29.1,63.9,26.4z M53.7,40.1
			c2.3-1.5,4.8-2.7,7.2-3.3c0.2,2.4,0.7,4.7,1.6,6.9c0.4,1.1-0.2,2.3-1.3,2.4c-1.6,0.2-3.2,0.7-4.8,1.3c-1,0.4-2.1-0.3-2.3-1.4
			C53.7,44.1,53.6,42.1,53.7,40.1L53.7,40.1z M48,55.3c1.2-1.3,2.4-2.4,3.8-3.3c0.9-0.6,2-0.2,2.4,0.8c0.7,1.6,1.5,3.1,2.5,4.4
			c0.7,0.9,0.3,2.3-0.7,2.7c-1.5,0.7-3,1.5-4.4,2.5c-0.8,0.6-2,0.3-2.5-0.6c-0.7-1.5-1.3-3.1-1.7-4.8C47.4,56.4,47.6,55.8,48,55.3z
			 M45.6,72.2c0.8-1.4,1.7-2.8,2.7-4c0.7-0.9,1.9-0.8,2.6,0c1.1,1.3,2.2,2.5,3.5,3.5c0.9,0.7,0.9,2.1,0,2.8c-1.3,1-2.5,2.2-3.5,3.5
			c-0.7,0.8-1.9,0.9-2.6,0c-1-1.2-1.9-2.6-2.7-4.1C45.3,73.5,45.3,72.8,45.6,72.2z M47.6,89.3c0.4-1.6,1-3.2,1.6-4.7
			c0.5-1,1.6-1.3,2.5-0.6c1.3,1,2.8,1.8,4.2,2.5c1,0.4,1.4,1.8,0.7,2.7c-1,1.3-1.8,2.8-2.4,4.3c-0.4,1-1.6,1.4-2.5,0.8
			c-1.3-1-2.6-2-3.8-3.3C47.6,90.6,47.4,89.9,47.6,89.3z M53.7,106.3c-0.1-2,0.1-4,0.4-5.9c0.2-1.1,1.3-1.7,2.3-1.4
			c1.6,0.6,3.2,1,4.8,1.3c1.1,0.2,1.7,1.4,1.3,2.4c-0.6,1.5-1,3.1-1.3,4.8c-0.2,1.1-1.3,1.8-2.3,1.4
			C57.1,108.2,55.3,107.3,53.7,106.3L53.7,106.3z M63.6,118.9c-0.4-1.6-0.7-3.3-0.8-4.9c-0.1-1.1,0.8-2,1.8-1.9
			c0.8,0.1,1.5,0.1,2.3,0.1c0.9,0,1.8-0.1,2.8-0.2c1.1-0.1,2,0.8,1.9,2c-0.2,1.7-0.2,3.3,0,5c0.1,1.1-0.7,2.1-1.7,2
			c-1.7-0.1-3.4-0.4-5-0.9C64.2,120,63.7,119.5,63.6,118.9z M78.3,130.5c-0.4,0-0.7,0-1.1,0c-1.1-1.7-1.9-3.5-2.6-5.3
			c-0.4-1.1,0.3-2.2,1.3-2.4c1.7-0.3,3.3-0.8,4.8-1.4c1-0.4,2.1,0.3,2.3,1.4c0.3,2.3,1,4.6,2,6.8C82.8,130.2,80.6,130.5,78.3,130.5
			L78.3,130.5z M92.6,137c-2-1.9-3.7-4-5-6.4c2.2-0.9,4.3-2,6.2-3.4c0.9-0.7,2.1-0.3,2.6,0.8c0.9,2.2,2.1,4.3,3.6,6.1
			C97.7,135.4,95.2,136.3,92.6,137L92.6,137z M109.2,139.2c-2.4-1.4-4.5-3-6.3-4.7c2.6-1.9,4.8-4.1,6.3-6.8c1.7,2.7,3.8,5,6.3,6.8
			C113.7,136.3,111.6,138,109.2,139.2z M125.8,137c-2.7-0.6-5.1-1.6-7.4-3c1.5-1.8,2.8-3.9,3.6-6.1c0.4-1,1.7-1.4,2.5-0.8
			c1.8,1.4,3.9,2.6,6.2,3.4C129.4,133,127.8,135.1,125.8,137L125.8,137z M141.2,130.4c-0.4,0-0.7,0-1.1,0c-2.3,0-4.6-0.3-6.7-0.9
			c1-2.2,1.7-4.5,2-6.8c0.2-1.1,1.3-1.8,2.3-1.4c1.5,0.6,3.1,1.1,4.7,1.4c1.1,0.2,1.7,1.3,1.3,2.4
			C143.1,126.9,142.3,128.6,141.2,130.4L141.2,130.4z M153.6,120.1c-1.6,0.5-3.2,0.8-4.9,0.9c-1.1,0.1-1.9-0.9-1.8-2
			c0.2-1.7,0.2-3.3,0-4.9c-0.1-1.2,0.8-2.1,1.9-2c0.9,0.1,1.8,0.2,2.8,0.2c0.8,0,1.5,0,2.3-0.1c1.1-0.1,1.9,0.9,1.8,2
			c-0.2,1.5-0.5,3.1-0.9,4.7C154.6,119.5,154.1,120,153.6,120.1z M164.7,106.2c-1.7,1.1-3.4,2-5.2,2.7c-1,0.4-2-0.3-2.2-1.4
			c-0.3-1.7-0.7-3.3-1.3-4.8c-0.4-1.1,0.2-2.3,1.3-2.4c1.6-0.2,3.2-0.7,4.8-1.3c1-0.4,2.1,0.3,2.3,1.4
			C164.6,102.2,164.7,104.2,164.7,106.2L164.7,106.2z M170.4,90.9c-1.2,1.2-2.4,2.4-3.8,3.3c-0.9,0.6-2,0.2-2.4-0.8
			c-0.7-1.6-1.5-3.1-2.5-4.4c-0.7-0.9-0.3-2.3,0.7-2.7c1.5-0.7,3-1.5,4.3-2.5c0.9-0.6,2-0.3,2.5,0.7c0.7,1.5,1.2,3,1.6,4.6
			C171,89.8,170.8,90.5,170.4,90.9z"/>
		<text transform="matrix(0.969 0 0 1 84.3045 99.8408)" class="st14 st15">BE</text>
		<text transform="matrix(0.969 0 0 1 92.9212 99.8408)" class="st14 st15">A</text>
		<text transform="matrix(0.969 0 0 1 97.2522 99.8408)" class="st14 st15">U</text>
		<text transform="matrix(0.969 0 0 1 102.1355 99.8408)" class="st14 st15">T</text>
		<text transform="matrix(0.969 0 0 1 106.9636 99.8408)" class="st14 st15">Y SA</text>
		<text transform="matrix(0.969 0 0 1 119.9119 99.8408)" class="st14 st15">L</text>
		<text transform="matrix(0.969 0 0 1 123.9666 99.8408)" class="st14 st15">ON</text>
	</g>
</g>
</svg>
